HIERARCHY
ROOT Hips
{
	OFFSET	0	0	0
	CHANNELS 6  Xposition Yposition Zposition Xrotation Yrotation Zrotation
	JOINT Spine
	{
		OFFSET	0	52.8872	27.321
		CHANNELS 3  Xrotation Yrotation Zrotation
		JOINT Spine1
		{
			OFFSET	0	92.3527	-24.7373
			CHANNELS 3  Xrotation Yrotation Zrotation
			JOINT Spine2
			{
				OFFSET	0	70.0066	7.50365
				CHANNELS 3  Xrotation Yrotation Zrotation
				JOINT Spine3
				{
					OFFSET	0	83.7771	5.11238
					CHANNELS 3  Xrotation Yrotation Zrotation
					JOINT Spine4
					{
						OFFSET	0	124.016	-9.40019
						CHANNELS 3  Xrotation Yrotation Zrotation
						JOINT Neck
						{
							OFFSET	0	59.2047	-41.4763
							CHANNELS 3  Xrotation Yrotation Zrotation
							JOINT Head
							{
								OFFSET	0	71.0786	-21.2741
								CHANNELS 3  Xrotation Yrotation Zrotation
								End Site
								{
									OFFSET	0	148.259	-7.17383
								}
							}
						}
					}
					JOINT LeftShoulder
					{
						OFFSET	-35.6218	150.733	-67.7803
						CHANNELS 3  Xrotation Yrotation Zrotation
						JOINT LeftArm
						{
							OFFSET	-118.824	-21.2741	27.2937
							CHANNELS 3  Xrotation Yrotation Zrotation
							JOINT LeftForeArm
							{
								OFFSET	-262.535	0	0
								CHANNELS 3  Xrotation Yrotation Zrotation
								JOINT LeftHand
								{
									OFFSET	-218.381	0	0
									CHANNELS 3  Xrotation Yrotation Zrotation
									End Site
									{
										OFFSET	-79.698	0	-0.000362396
									}
								}
							}
						}
					}
					JOINT RightShoulder
					{
						OFFSET	35.6218	150.733	-67.7803
						CHANNELS 3  Xrotation Yrotation Zrotation
						JOINT RightArm
						{
							OFFSET	118.824	-21.2741	27.2937
							CHANNELS 3  Xrotation Yrotation Zrotation
							JOINT RightForeArm
							{
								OFFSET	262.535	0	0
								CHANNELS 3  Xrotation Yrotation Zrotation
								JOINT RightHand
								{
									OFFSET	218.381	0	0
									CHANNELS 3  Xrotation Yrotation Zrotation
									End Site
									{
										OFFSET	79.698	0	-0.000362396
									}
								}
							}
						}
					}
				}
			}
		}
	}
	JOINT LeftUpLeg
	{
		OFFSET	-78.6843	-26.4436	-13.6605
		CHANNELS 3  Xrotation Yrotation Zrotation
		JOINT LeftLeg
		{
			OFFSET	0	-374.728	0
			CHANNELS 3  Xrotation Yrotation Zrotation
			JOINT LeftFoot
			{
				OFFSET	0	-360.033	0
				CHANNELS 3  Xrotation Yrotation Zrotation
				JOINT LeftToeBase
				{
					OFFSET	2.4765	-35.0047	-124.568
					CHANNELS 3  Xrotation Yrotation Zrotation
					End Site
					{
						OFFSET	0.991829	-11.9044	-74.2526
					}
				}
			}
		}
	}
	JOINT RightUpLeg
	{
		OFFSET	78.6843	-26.4436	-13.6605
		CHANNELS 3  Xrotation Yrotation Zrotation
		JOINT RightLeg
		{
			OFFSET	0	-374.728	0
			CHANNELS 3  Xrotation Yrotation Zrotation
			JOINT RightFoot
			{
				OFFSET	0	-360.033	0
				CHANNELS 3  Xrotation Yrotation Zrotation
				JOINT RightToeBase
				{
					OFFSET	-2.4765	-35.0047	-124.568
					CHANNELS 3  Xrotation Yrotation Zrotation
					End Site
					{
						OFFSET	-0.991829	-11.9044	-74.2526
					}
				}
			}
		}
	}
}
MOTION
Frames: 6
Frame Time: 0.008333
 -6420.85 840.528 -8415.17 5.59328 -153.38 7.40032 178.911 177.502 178.232 172.046 175.006 177.636 177.242 165.027 176.953 175.292 177.503 177.643 179.179 179.992 179.411 0.638617 2.66442 8.16732 0.295845 -4.26224 2.10224 0.664684 -28.6455 1.44349 12.064 16.4041 88.2772 179.876 -162.813 179.902 -0 6.48016 10.3102 177.599 169.462 -175.001 144.989 125.685 111.633 179.8 167.243 -179.939 -0 21.3478 -35.1204 6.01229 40.8125 -5.1405 166.529 -178.314 176.631 0.758625 0.00109636 4.02383 28.5674 0 0 173.931 141.979 176.88 4.0517 9.38029 -1.67161 164.437 179.997 -174.193 28.5943 0 0
 -6419.96 840.446 -8412.94 5.42026 -153.94 7.60278 178.879 177.417 178.192 171.801 174.837 177.582 177.165 164.518 176.877 175.111 177.418 177.59 179.235 179.992 179.398 0.907853 2.71153 8.07789 0.375706 -4.16071 2.09254 0.862414 -28.6525 1.873 12.3713 16.5193 88.0076 179.877 -162.838 179.896 -0 6.39806 9.78769 177.704 169.68 -175.227 144.889 125.66 112.405 179.734 167.404 -179.929 -0 21.2801 -34.869 7.16109 41.7323 -6.1915 165.626 -178.328 176.441 1.04579 0.000705077 3.94383 28.567 0 0 174.238 141.563 176.435 3.79734 9.46409 -1.78384 164.454 179.998 -174.188 28.605 0 0
 -6419.16 840.351 -8410.63 5.30863 -154.039 7.87558 178.84 177.397 178.15 171.515 174.797 177.525 177.05 164.399 176.801 174.899 177.398 177.533 179.307 179.993 179.384 1.23835 2.76397 7.95778 0.473417 -4.03234 2.07752 1.09497 -28.6484 2.37826 12.638 16.6992 87.5631 179.862 -162.799 179.891 -0 6.28162 9.15263 177.836 169.636 -175.501 144.84 125.544 113.262 179.677 167.631 -179.907 -0 21.2499 -34.7324 8.58943 42.3888 -7.33392 164.454 -178.342 176.114 1.3768 0.000333569 3.83093 28.5653 0 0 174.465 141.225 175.829 3.53999 9.53895 -1.68134 164.491 179.999 -174.171 28.6244 0 0
 -6418 839.89 -8407.86 5.31166 -154.415 8.20892 178.816 177.356 178.12 171.337 174.714 177.485 176.979 164.152 176.746 174.739 177.357 177.493 179.416 179.994 179.374 1.63151 2.81959 7.80351 0.589287 -3.876 2.05606 1.37511 -28.6385 2.98711 12.743 17.0718 87.0597 179.842 -162.807 179.887 -0 6.24642 8.49189 177.957 169.642 -175.754 144.865 125.287 114.063 179.637 167.987 -179.891 -0 21.2528 -34.6747 10.3009 42.7846 -8.6402 163.292 -178.353 176.041 1.7442 -6.76963e-06 3.68206 28.5732 0 0 174.866 140.846 175.294 3.28046 9.59664 -1.75581 164.55 -179.999 -174.138 28.634 0 0
 -6417.38 839.68 -8405.39 5.15921 -154.55 8.54033 178.752 177.334 178.091 170.88 174.671 177.447 176.78 164.021 176.695 174.411 177.335 177.455 179.505 179.995 179.365 2.08618 2.8754 7.61303 0.722887 -3.69231 2.02716 1.41708 -28.633 3.07836 13.3609 17.4423 86.8176 179.838 -162.863 179.884 -0 6.19378 7.58814 178.103 169.979 -176.064 145.129 125.258 115.331 179.625 168.299 -179.911 -0 21.2758 -34.7823 12.5549 43.5335 -10.2905 161.364 -178.362 175.446 2.1351 -0.000320349 3.4972 28.5551 0 0 175.292 140.563 174.544 2.65499 9.62859 -1.89256 164.635 -179.998 -174.087 28.6416 0 0
 -6415.77 838.782 -8402.33 5.30326 -154.686 9.08931 178.74 177.33 178.023 170.784 174.663 177.355 176.745 163.999 176.576 174.28 177.331 177.364 179.666 179.996 179.342 2.59885 2.92778 7.38625 0.873117 -3.48407 1.99014 1.50711 -28.6291 3.27411 13.3901 18.1417 86.7418 179.861 -162.982 179.894 -0 6.12968 6.6254 178.339 169.982 -176.554 144.73 125.179 116.68 179.658 168.713 -179.909 -0 21.2181 -34.9137 15.2284 43.7551 -11.9316 159.605 -178.367 174.801 2.5308 -0.000623355 3.27934 28.547 0 0 175.945 140.21 173.843 2.35727 9.62672 -2.15573 164.745 -179.997 -174.018 28.648 0 0
